<svg width="40" height="40" viewBox="0 0 40 40" fill="none" xmlns="http://www.w3.org/2000/svg">
<path d="M0.5 20C0.5 9.23045 9.23045 0.5 20 0.5C30.7696 0.5 39.5 9.23045 39.5 20C39.5 30.7696 30.7696 39.5 20 39.5C9.23045 39.5 0.5 30.7696 0.5 20Z" stroke="#7E828F" stroke-opacity="0.3"/>
<g clip-path="url(#clip0_2_1410)">
<g opacity="0.5">
<path opacity="0.5" d="M28.9999 13.7824C28.3247 14.085 27.6103 14.2854 26.8789 14.3775C27.2598 14.1406 27.5969 13.8367 27.8749 13.4797C28.1557 13.1195 28.3701 12.7098 28.5075 12.2707C27.7806 12.7156 26.9836 13.0268 26.1523 13.1902C25.814 12.8189 25.4063 12.5213 24.9534 12.3152C24.4831 12.1017 23.9737 11.994 23.4595 11.9992C22.9745 11.9976 22.494 12.0948 22.0458 12.2852C21.5977 12.4755 21.1908 12.7551 20.8488 13.1079C20.5049 13.4588 20.2323 13.8762 20.0468 14.3359C19.8612 14.7956 19.7665 15.2885 19.768 15.7861C19.7685 16.0772 19.7994 16.3674 19.8602 16.6517C18.3711 16.5714 16.9153 16.1687 15.5887 15.4701C14.3012 14.7886 13.1655 13.8406 12.2532 12.686C11.9347 13.2703 11.7654 13.9276 11.7607 14.597C11.7529 15.2296 11.9034 15.8537 12.1979 16.4095C12.4854 16.9511 12.8968 17.4131 13.3967 17.7557C12.8089 17.7383 12.2339 17.576 11.7202 17.2827V17.3186C11.7227 18.1994 12.0217 19.0523 12.5667 19.7329C13.1068 20.4035 13.856 20.8623 14.6877 21.0317C14.3691 21.1296 14.0383 21.1796 13.7056 21.1803C13.4751 21.1808 13.2452 21.1567 13.0195 21.1084C13.2488 21.8538 13.7004 22.5067 14.3106 22.9749C14.9338 23.4526 15.6861 23.7204 16.4639 23.7411C15.8235 24.2484 15.1072 24.6459 14.3428 24.918C13.5485 25.2033 12.7139 25.3525 11.8723 25.3598C11.5804 25.3592 11.2888 25.3409 10.999 25.3049C11.8251 25.8487 12.7217 26.2706 13.6623 26.5584C14.6348 26.8555 15.6446 27.0043 16.6594 27.0002C20.0702 26.8683 22.672 25.6991 24.4647 23.4923C26.1867 21.4776 27.1471 18.896 27.1713 16.2165C27.1713 16.0601 27.1654 15.8977 27.1537 15.7293C27.8734 15.1959 28.4975 14.5385 28.9981 13.7862L28.9999 13.7824Z" fill="#0C2050"/>
</g>
</g>
<defs>
<clipPath id="clip0_2_1410">
<rect width="18" height="15" fill="white" transform="translate(11 12)"/>
</clipPath>
</defs>
</svg>
