<svg width="40" height="40" viewBox="0 0 40 40" fill="none" xmlns="http://www.w3.org/2000/svg">
<path d="M0.5 20C0.5 9.23045 9.23045 0.5 20 0.5C30.7696 0.5 39.5 9.23045 39.5 20C39.5 30.7696 30.7696 39.5 20 39.5C9.23045 39.5 0.5 30.7696 0.5 20Z" stroke="#7E828F" stroke-opacity="0.3"/>
<g clip-path="url(#clip0_2_1420)">
<g opacity="0.5">
<path opacity="0.5" d="M28.6135 15.0482C28.8005 15.9597 28.9092 16.8862 28.9383 17.8171C28.9794 18.8479 29 19.4114 29 19.5076C29 19.6039 28.9794 20.1671 28.9383 21.1973C28.9093 22.1285 28.8005 23.0553 28.6135 23.9671C28.5016 24.3562 28.3002 24.7121 28.0263 25.0048C27.7507 25.299 27.3998 25.5076 27.0139 25.6067C25.6823 25.8251 24.336 25.9364 22.9874 25.9397C21.2044 25.9819 20.2074 26.0029 19.9963 26.0029C19.7853 26.0029 18.7882 25.9819 17.0052 25.9397C15.6566 25.9364 14.3104 25.8251 12.9787 25.6067C12.5928 25.5076 12.2419 25.299 11.9664 25.0048C11.6954 24.7112 11.4969 24.3554 11.3875 23.9671C11.1998 23.0557 11.0905 22.1292 11.0607 21.1982C11.0202 20.1674 11 19.6039 11 19.5076C11 19.4114 11.0206 18.8479 11.0617 17.8171C11.0911 16.8861 11.2001 15.9596 11.3875 15.0482C11.4966 14.6579 11.6983 14.3014 11.9746 14.0105C12.2524 13.721 12.6027 13.5157 12.987 13.4171C14.3172 13.1847 15.6641 13.0673 17.0135 13.0661C18.7965 13.024 19.7935 13.0029 20.0046 13.0029C20.2157 13.0029 21.2127 13.024 22.9957 13.0661C24.3451 13.0673 25.692 13.1847 27.0222 13.4171C27.4065 13.5157 27.7568 13.721 28.0346 14.0105C28.3099 14.3017 28.5107 14.6582 28.619 15.0482H28.6135ZM18.1575 22.2407L22.8613 19.5048L18.1575 16.7567V22.2407Z" fill="#0C2050"/>
</g>
</g>
<defs>
<clipPath id="clip0_2_1420">
<rect width="18" height="13" fill="white" transform="translate(11 13)"/>
</clipPath>
</defs>
</svg>
