<svg width="40" height="40" viewBox="0 0 40 40" fill="none" xmlns="http://www.w3.org/2000/svg">
<path d="M0.5 20C0.5 9.23045 9.23045 0.5 20 0.5C30.7696 0.5 39.5 9.23045 39.5 20C39.5 30.7696 30.7696 39.5 20 39.5C9.23045 39.5 0.5 30.7696 0.5 20Z" stroke="#7E828F" stroke-opacity="0.3"/>
<g clip-path="url(#clip0_2_1415)">
<g opacity="0.5">
<path opacity="0.5" d="M22.9895 20.0002C22.992 19.6064 22.9157 19.2161 22.7651 18.8523C22.6144 18.4884 22.3924 18.1584 22.1122 17.8818C21.8367 17.6035 21.5086 17.3828 21.1469 17.2327C20.7853 17.0826 20.3974 17.006 20.0058 17.0074C19.6124 17.0043 19.2223 17.08 18.8586 17.23C18.4948 17.3799 18.1648 17.6012 17.8878 17.8807C17.6084 18.1577 17.3872 18.4879 17.2372 18.8517C17.0873 19.2155 17.0116 19.6057 17.0148 19.9992C17.01 20.3921 17.0837 20.7819 17.2317 21.1459C17.3796 21.5099 17.5988 21.8406 17.8763 22.1187C18.1545 22.3982 18.486 22.619 18.851 22.7681C19.2161 22.9172 19.6073 22.9915 20.0016 22.9867C20.3931 22.9883 20.7809 22.9119 21.1426 22.7619C21.5042 22.612 21.8324 22.3915 22.108 22.1134C22.3882 21.8368 22.6102 21.5068 22.7608 21.143C22.9115 20.7791 22.9878 20.3888 22.9853 19.995L22.9895 20.0002ZM24.6156 20.0002C24.6129 21.2252 24.1256 22.3992 23.2601 23.2659C22.3947 24.1289 21.2236 24.615 20.0016 24.6185C18.7769 24.6158 17.6031 24.1284 16.7367 23.2627C15.8712 22.3961 15.3839 21.222 15.3813 19.9971C15.3839 18.7721 15.8712 17.5981 16.7367 16.7314C17.603 15.8654 18.7768 15.3776 20.0016 15.3746C21.2262 15.3773 22.4 15.8647 23.2665 16.7304C24.1308 17.5975 24.6169 18.7715 24.6188 19.996L24.6156 20.0002ZM25.8794 15.2019C25.8767 15.4877 25.7635 15.7614 25.5635 15.9656C25.4635 16.0653 25.3442 16.1434 25.2128 16.1952C25.0815 16.2471 24.941 16.2714 24.7999 16.2669C24.6588 16.2714 24.5183 16.2471 24.387 16.1952C24.2556 16.1434 24.1363 16.0653 24.0363 15.9656C23.9367 15.8656 23.8585 15.7462 23.8067 15.6149C23.7549 15.4835 23.7306 15.343 23.7351 15.2019C23.7306 15.0607 23.7549 14.9202 23.8067 14.7888C23.8585 14.6575 23.9367 14.5381 24.0363 14.4381C24.1363 14.3384 24.2556 14.2603 24.387 14.2085C24.5183 14.1566 24.6588 14.1323 24.7999 14.1368C24.941 14.1323 25.0815 14.1566 25.2128 14.2085C25.3442 14.2603 25.4635 14.3384 25.5635 14.4381C25.7632 14.642 25.8765 14.9153 25.8794 15.2008V15.2019ZM20.0016 12.6294C19.2791 12.616 18.379 12.616 17.3012 12.6294C16.4213 12.6137 15.5443 12.7356 14.702 12.9907C14.5096 13.0669 14.3248 13.161 14.1501 13.272C13.9756 13.3848 13.8139 13.5162 13.6677 13.6638C13.5201 13.81 13.3887 13.9718 13.2759 14.1463C13.165 14.321 13.0709 14.5059 12.9947 14.6983C12.7397 15.5408 12.6178 16.418 12.6335 17.2982C12.6181 18.3762 12.6103 19.2769 12.6103 20.0002C12.6103 20.7236 12.617 21.6239 12.6303 22.7012C12.6153 23.5826 12.7383 24.4609 12.9947 25.3043C13.0709 25.4967 13.165 25.6815 13.2759 25.8563C13.3887 26.0308 13.5201 26.1925 13.6677 26.3387C13.8139 26.4864 13.9756 26.6178 14.1501 26.7306C14.3248 26.8416 14.5095 26.9357 14.702 27.0119C15.5443 27.267 16.4213 27.3889 17.3012 27.3732C18.3783 27.3866 19.2784 27.3932 20.0016 27.3932C20.7248 27.3932 21.6249 27.3866 22.702 27.3732C23.5819 27.3889 24.4589 27.267 25.3012 27.0119C25.4936 26.9357 25.6784 26.8416 25.8531 26.7306C26.0276 26.6178 26.1893 26.4864 26.3354 26.3387C26.4831 26.1925 26.6144 26.0308 26.7272 25.8563C26.8381 25.6815 26.9323 25.4967 27.0084 25.3043C27.2635 24.4618 27.3854 23.5846 27.3697 22.7044C27.383 21.6271 27.3897 20.7268 27.3897 20.0034C27.3897 19.28 27.3827 18.3783 27.3686 17.2982C27.3843 16.418 27.2624 15.5408 27.0074 14.6983C26.9312 14.5059 26.8371 14.321 26.7262 14.1463C26.6134 13.9718 26.482 13.81 26.3344 13.6638C26.1882 13.5162 26.0265 13.3848 25.852 13.272C25.6774 13.161 25.4926 13.0669 25.3002 12.9907C24.4578 12.7356 23.5809 12.6137 22.7009 12.6294C21.6217 12.616 20.722 12.616 20.0016 12.6294ZM28.9958 20.0034C29.0091 21.2352 28.9891 22.4733 28.9358 23.7178C28.9149 24.4078 28.7932 25.091 28.5745 25.7457C28.3447 26.3977 27.9669 26.9876 27.4708 27.4691C26.9879 27.9647 26.3967 28.3415 25.7436 28.5699C25.089 28.7887 24.406 28.9104 23.7162 28.9312C22.4685 28.9881 21.2303 29.0081 20.0016 28.9913C18.7701 29.0081 17.5319 28.9895 16.287 28.9355C15.597 28.9133 14.9139 28.7901 14.2596 28.5699C13.6055 28.3423 13.0131 27.9658 12.5292 27.4701C12.0326 26.9875 11.6547 26.3961 11.4255 25.7425C11.2068 25.0878 11.0851 24.4046 11.0643 23.7146C11.0102 22.4716 10.9902 21.2335 11.0042 20.0002C10.9909 18.7684 11.0109 17.5303 11.0643 16.2858C11.0851 15.5959 11.2068 14.9127 11.4255 14.258C11.6547 13.6044 12.0326 13.013 12.5292 12.5303C13.0115 12.0337 13.6024 11.6558 14.2554 11.4264C14.91 11.2076 15.593 11.0859 16.2828 11.065C17.5277 11.0117 18.7655 10.9916 19.9963 11.005C21.2278 10.9916 22.4657 11.0117 23.7099 11.065C24.3997 11.0859 25.0827 11.2076 25.7372 11.4264C26.389 11.6559 26.9788 12.0335 27.4603 12.5293C27.9568 13.0117 28.3346 13.6027 28.564 14.2559C28.7827 14.9106 28.9044 15.5938 28.9252 16.2837C28.98 17.5317 29.0007 18.7702 28.9874 19.9992L28.9958 20.0034Z" fill="#0C2050"/>
</g>
</g>
<defs>
<clipPath id="clip0_2_1415">
<rect width="18" height="18" fill="white" transform="translate(11 11)"/>
</clipPath>
</defs>
</svg>
